<svg aria-hidden="true" style="position: absolute; width: 0; height: 0; overflow: hidden;" version="1.1" xmlns="http://www.w3.org/2000/svg" xmlns:xlink="http://www.w3.org/1999/xlink">
<defs>
<symbol id="icon-heroicons-solid_menu" viewBox="0 0 32 32">
<path d="M4.799 8.001c0-0.884 0.716-1.6 1.6-1.6h19.2c0 0 0 0 0 0 0.442 0 0.842 0.179 1.131 0.469v0c0.3 0.3 0.469 0.707 0.469 1.131s-0.169 0.831-0.469 1.131c-0.29 0.29-0.689 0.469-1.131 0.469-0 0-0 0-0 0h-19.2c-0.884 0-1.6-0.716-1.6-1.6v0zM4.799 16.001c0-0 0-0 0-0 0-0.442 0.179-0.842 0.469-1.131v0c0.29-0.29 0.689-0.469 1.131-0.469 0 0 0 0 0 0h19.2c0 0 0 0 0 0 0.442 0 0.842 0.179 1.131 0.469v0c0.29 0.289 0.469 0.689 0.469 1.131 0 0 0 0 0 0v0c0 0 0 0 0 0 0 0.442-0.179 0.842-0.469 1.131v0c-0.289 0.29-0.689 0.469-1.131 0.469-0 0-0 0-0 0h-19.2c-0 0-0 0-0 0-0.884 0-1.6-0.716-1.6-1.6 0-0 0-0 0-0v0zM4.799 24.001c0-0 0-0 0-0 0-0.442 0.179-0.842 0.469-1.131v0c0.29-0.29 0.689-0.469 1.131-0.469 0 0 0 0 0 0h19.2c0 0 0 0 0 0 0.442 0 0.842 0.179 1.131 0.469v0c0.29 0.289 0.469 0.689 0.469 1.131 0 0 0 0 0 0v0c0 0 0 0 0 0 0 0.442-0.179 0.842-0.469 1.131v0c-0.289 0.29-0.689 0.469-1.131 0.469-0 0-0 0-0 0h-19.2c-0 0-0 0-0 0-0.884 0-1.6-0.716-1.6-1.6 0-0 0-0 0-0v0z"></path>
</symbol>
</defs>
</svg>
